<svg width="28" height="28" viewBox="0 0 28 28" fill="black" xmlns="http://www.w3.org/2000/svg">
<path d="M24.9492 14.245C25.4576 13.5713 25.7384 12.7463 25.737 11.8881C25.7349 10.5266 24.9716 9.2385 23.7452 8.52088C23.4295 8.33617 23.0702 8.23911 22.7045 8.23977L15.4319 8.246L15.6079 4.51907C15.649 3.61842 15.3292 2.76357 14.7094 2.11214C14.4053 1.79106 14.0386 1.5357 13.632 1.36184C13.2253 1.18799 12.7874 1.09933 12.3453 1.10136C10.7682 1.10271 9.37482 2.16523 8.95869 3.6848L6.36843 13.1177L2.44702 13.121C1.91021 13.1215 1.47721 13.5555 1.47806 14.0922L1.49552 25.13C1.49637 25.6668 1.93074 26.1 2.46755 26.0996L20.7038 26.0839C20.9828 26.0837 21.2557 26.0289 21.5072 25.9195C22.9499 25.3027 23.8787 23.8918 23.8762 22.3271C23.8756 21.9451 23.8205 21.5691 23.7107 21.2053C24.2191 20.5317 24.4999 19.7066 24.4985 18.8485C24.4979 18.4664 24.4427 18.0904 24.333 17.7266C24.8414 17.053 25.1222 16.228 25.1208 15.3698C25.1141 14.9877 25.059 14.6088 24.9492 14.245ZM3.67722 23.9152L3.66359 15.3033L6.12017 15.3012L6.13379 23.9131L3.67722 23.9152ZM22.961 13.1944L22.2978 13.7712L22.7206 14.541C22.8598 14.7946 22.9323 15.0794 22.9311 15.3687C22.9319 15.869 22.7143 16.3453 22.3388 16.6731L21.6755 17.2498L22.0983 18.0197C22.2376 18.2733 22.31 18.5581 22.3088 18.8473C22.3096 19.3477 22.092 19.8239 21.7165 20.1517L21.0532 20.7285L21.476 21.4983C21.6153 21.7519 21.6877 22.0367 21.6866 22.326C21.6876 23.0052 21.2883 23.6181 20.67 23.8976L8.07478 23.9084L8.06101 15.2025L11.0614 4.26825C11.1387 3.98799 11.3054 3.74065 11.536 3.56371C11.7667 3.38677 12.0488 3.28987 12.3396 3.2877C12.5701 3.2875 12.7977 3.35402 12.9799 3.49032C13.2805 3.71445 13.4418 4.05394 13.4241 4.41481L13.1425 10.4313L22.6776 10.4231C23.218 10.7532 23.5525 11.3108 23.5534 11.89C23.5542 12.3903 23.3366 12.8636 22.961 13.1944Z" fill="black"/>
</svg>
