<svg width="28" height="28" viewBox="0 0 32 32" fill="none" xmlns="http://www.w3.org/2000/svg">
<g clip-path="url(#clip0_46_8264)">
<path d="M27.4285 0H4.57132C3.93918 0 3.42847 0.510714 3.42847 1.14286V30.8571C3.42847 31.4893 3.93918 32 4.57132 32H27.4285C28.0606 32 28.5713 31.4893 28.5713 30.8571V1.14286C28.5713 0.510714 28.0606 0 27.4285 0ZM18.1428 2.57143H21.5713V10.0679L19.9106 8.85714L18.1428 10.1214V2.57143ZM25.9999 29.4286H5.9999V2.57143H15.9999V13.175C15.9999 13.2929 16.0356 13.4107 16.107 13.5071C16.1504 13.5684 16.2055 13.6205 16.2691 13.6604C16.3327 13.7003 16.4036 13.7271 16.4777 13.7394C16.5517 13.7517 16.6275 13.7492 16.7006 13.732C16.7737 13.7148 16.8426 13.6833 16.9035 13.6393L19.8963 11.5L22.8035 13.6214C22.8999 13.6929 23.0178 13.7321 23.1392 13.7321C23.4535 13.7321 23.7106 13.475 23.7106 13.1607V2.57143H25.9963V29.4286H25.9999Z" fill="black"/>
</g>
<defs>
<clipPath id="clip0_46_8264">
<rect width="32" height="32" fill="white"/>
</clipPath>
</defs>
</svg>
