<svg width="28" height="28" viewBox="0 0 32 32" fill="none" xmlns="http://www.w3.org/2000/svg">
<path d="M29.3536 15.225C29.4822 14.7965 29.5465 14.3536 29.5465 13.9036C29.5465 12.8929 29.2144 11.9215 28.6144 11.1286C28.7429 10.7001 28.8072 10.2572 28.8072 9.80719C28.8072 8.79648 28.4751 7.82505 27.8751 7.03219C28.0036 6.60362 28.0679 6.16077 28.0679 5.71076C28.0679 3.86791 26.9715 2.20719 25.2715 1.48219C24.9727 1.35337 24.6505 1.28771 24.3251 1.28934H2.85721C2.22507 1.28934 1.71436 1.80005 1.71436 2.43219V15.4322C1.71436 16.0643 2.22507 16.5751 2.85721 16.5751H7.47507L10.5394 27.6751C11.0322 29.4643 12.6751 30.7143 14.5322 30.7143C15.5929 30.7143 16.5822 30.2929 17.3144 29.5215C18.0465 28.7536 18.4215 27.7465 18.3679 26.6858L18.1536 22.2965H26.7215C27.1536 22.2965 27.5751 22.1822 27.9465 21.9643C29.3894 21.1251 30.2858 19.6036 30.2858 18.0001C30.2858 16.9893 29.9536 16.0179 29.3536 15.225ZM4.28578 14.0001V3.85719H7.17864V14.0001H4.28578ZM26.6858 19.7286H15.4572L15.8001 26.8143C15.8215 27.2393 15.6322 27.6393 15.2786 27.9036C15.0608 28.0643 14.7929 28.1465 14.5251 28.1429C14.1829 28.1396 13.851 28.0254 13.5792 27.8174C13.3075 27.6093 13.1105 27.3188 13.0179 26.9893L9.46436 14.1143V3.85719H24.3001C24.6571 4.01718 24.9602 4.27689 25.1731 4.60509C25.386 4.93329 25.4995 5.316 25.5001 5.70719C25.5001 6.05362 25.4179 6.38219 25.2536 6.68219L24.7572 7.58934L25.5394 8.26791C25.7595 8.45858 25.936 8.69445 26.0568 8.95945C26.1776 9.22446 26.2398 9.51238 26.2394 9.80362C26.2394 10.1501 26.1572 10.4786 25.9929 10.7786L25.4965 11.6858L26.2786 12.3643C26.4988 12.555 26.6753 12.7909 26.7961 13.0559C26.9169 13.3209 26.9791 13.6088 26.9786 13.9001C26.9786 14.2465 26.8965 14.5751 26.7322 14.8751L26.2322 15.7858L27.0144 16.4643C27.2345 16.655 27.411 16.8909 27.5318 17.1559C27.6526 17.4209 27.7148 17.7088 27.7144 18.0001C27.7144 18.6822 27.3215 19.3393 26.6858 19.7286Z" fill="black"/>
</svg>
