<svg width="28" height="28" viewBox="0 0 28 28" fill="blue" xmlns="http://www.w3.org/2000/svg">
<g clip-path="url(#clip0_340_38)">
<path d="M22.0023 0.00446061L3.82047 0.0200416C3.31763 0.0204725 2.91206 0.454448 2.91291 0.991177L2.95282 26.2204C2.95367 26.7572 3.36061 27.1904 3.86345 27.19L22.0453 27.1744C22.5481 27.174 22.9537 26.74 22.9528 26.2033L22.9129 0.974037C22.9121 0.437309 22.5051 0.0040297 22.0023 0.00446061ZM14.6194 2.19409L17.3466 2.19175L17.3567 8.55668L16.0341 7.52984L14.6295 8.6045L14.6194 2.19409ZM20.9054 24.9921L4.99636 25.0057L4.96028 2.20237L12.9148 2.19555L12.9291 11.1986C12.9292 11.2987 12.9578 11.3987 13.0147 11.4806C13.0493 11.5326 13.0932 11.5768 13.1439 11.6106C13.1945 11.6444 13.251 11.6671 13.3099 11.6775C13.3688 11.6879 13.4291 11.6857 13.4872 11.6711C13.5453 11.6564 13.6001 11.6296 13.6484 11.5922L16.0263 9.7738L18.3416 11.573C18.4184 11.6336 18.5122 11.6669 18.6088 11.6668C18.8588 11.6666 19.063 11.4481 19.0626 11.1812L19.0483 2.1903L20.8665 2.18874L20.9026 24.9921L20.9054 24.9921Z" fill="black"/>
</g>
<defs>
<clipPath id="clip0_340_38">
<rect width="27.1739" height="27.17" fill="white" transform="matrix(1 -0.000856953 0.00158198 0.999999 0 0.0233154)"/>
</clipPath>
</defs>
</svg>
