<svg width="28" height="28" viewBox="0 0 30 30" fill="none" xmlns="http://www.w3.org/2000/svg">
<path d="M28.3536 15.775C28.9536 14.9821 29.2857 14.0107 29.2857 13C29.2857 11.3964 28.3893 9.87857 26.9464 9.03214C26.575 8.81427 26.1521 8.6996 25.7214 8.7H17.1571L17.3714 4.31071C17.4214 3.25 17.0464 2.24286 16.3179 1.475C15.9603 1.09653 15.5289 0.795403 15.0504 0.590232C14.5719 0.385062 14.0564 0.280205 13.5357 0.282142C11.6786 0.282142 10.0357 1.53214 9.54286 3.32143L6.475 14.4286H6.46429V29.7143H23.3321C23.6607 29.7143 23.9821 29.65 24.2786 29.5214C25.9786 28.7964 27.075 27.1357 27.075 25.2929C27.075 24.8429 27.0107 24.4 26.8821 23.9714C27.4821 23.1786 27.8143 22.2071 27.8143 21.1964C27.8143 20.7464 27.75 20.3036 27.6214 19.875C28.2214 19.0821 28.5536 18.1107 28.5536 17.1C28.5464 16.65 28.4821 16.2036 28.3536 15.775ZM0.714287 15.5714V28.5714C0.714287 29.2036 1.225 29.7143 1.85714 29.7143H4.17857V14.4286H1.85714C1.225 14.4286 0.714287 14.9393 0.714287 15.5714Z" fill="#3AB4F2"/>
</svg>
