<svg width="32" height="32" viewBox="0 0 32 32" fill="none" xmlns="http://www.w3.org/2000/svg">
<g clip-path="url(#clip0_161_90)">
<path d="M18.1786 12.75C17.3536 12.75 16.7144 13.3893 16.7144 14.1786C16.7144 14.9679 17.3536 15.6071 18.1786 15.6071C18.9322 15.6071 19.5715 14.9679 19.5715 14.1786C19.5715 13.3893 18.9322 12.75 18.1786 12.75ZM8.17864 12.75C7.35364 12.75 6.71436 13.3893 6.71436 14.1786C6.71436 14.9679 7.35364 15.6071 8.17864 15.6071C8.93221 15.6071 9.5715 14.9679 9.5715 14.1786C9.5715 13.3893 8.93221 12.75 8.17864 12.75Z" fill="black"/>
<path d="M29.6429 10.0358C27.9905 7.76128 25.6079 6.12245 22.8929 5.39292V5.39649C22.2822 4.71792 21.5929 4.09292 20.8214 3.53578C14.975 -0.714223 6.76787 0.582206 2.50001 6.42864C-0.939274 11.1786 -0.792845 17.5679 2.7143 22.1072L2.74287 26.8429C2.74287 26.9572 2.76073 27.0715 2.79644 27.1786C2.84136 27.3218 2.91406 27.4546 3.01038 27.5696C3.10669 27.6846 3.22473 27.7795 3.35775 27.8488C3.49077 27.9181 3.63615 27.9605 3.78557 27.9736C3.935 27.9867 4.08554 27.9702 4.22858 27.9251L8.75001 26.5001C9.94644 26.9251 11.1822 27.1679 12.4107 27.2358L12.3929 27.2501C15.575 29.5679 19.7464 30.2644 23.5714 29.0001L28.1107 30.4786C28.225 30.5144 28.3429 30.5358 28.4643 30.5358C29.0964 30.5358 29.6072 30.0251 29.6072 29.3929V24.6072C32.7536 20.3358 32.8357 14.4322 29.6429 10.0358ZM9.25001 23.9643L8.82144 23.7858L5.28573 24.8929L5.25001 21.1786L4.9643 20.8572C1.94287 17.1715 1.74287 11.8608 4.57144 7.96435C8.0143 3.24292 14.6143 2.20006 19.3214 5.60721C24.0429 9.03935 25.0893 15.6286 21.6786 20.3215C18.8179 24.2465 13.6964 25.6965 9.25001 23.9643ZM27.2857 23.3572L27 23.7143L27.0357 27.4286L23.5357 26.2501L23.1072 26.4286C21.1072 27.1715 18.975 27.2322 17 26.6786L16.9929 26.6751C19.7073 25.8426 22.0783 24.1521 23.75 21.8572C26.4786 18.0965 26.9214 13.3715 25.3357 9.34292L25.3572 9.35721C26.1786 9.94649 26.9322 10.6822 27.5714 11.5715C30.1643 15.1286 30.0179 19.9715 27.2857 23.3572Z" fill="black"/>
<path d="M13.1786 12.75C12.3536 12.75 11.7144 13.3893 11.7144 14.1786C11.7144 14.9679 12.3536 15.6071 13.1786 15.6071C13.9322 15.6071 14.5715 14.9679 14.5715 14.1786C14.5715 13.3893 13.9322 12.75 13.1786 12.75Z" fill="black"/>
</g>
<defs>
<clipPath id="clip0_161_90">
<rect width="32" height="32" fill="white"/>
</clipPath>
</defs>
</svg>
