<svg width="28" height="28" viewBox="0 0 32 32" fill="none" xmlns="http://www.w3.org/2000/svg">
<path d="M29.3536 16.7751C29.9536 15.9823 30.2858 15.0108 30.2858 14.0001C30.2858 12.3965 29.3894 10.8787 27.9465 10.0323C27.5751 9.81438 27.1521 9.69971 26.7215 9.70011H18.1572L18.3715 5.31082C18.4215 4.25011 18.0465 3.24297 17.3179 2.47511C16.9604 2.09664 16.529 1.79551 16.0505 1.59034C15.572 1.38517 15.0564 1.28032 14.5358 1.28225C12.6786 1.28225 11.0358 2.53225 10.5429 4.32154L7.47507 15.4287H2.85721C2.22507 15.4287 1.71436 15.9394 1.71436 16.5715V29.5715C1.71436 30.2037 2.22507 30.7144 2.85721 30.7144H24.3322C24.6608 30.7144 24.9822 30.6501 25.2786 30.5215C26.9786 29.7965 28.0751 28.1358 28.0751 26.293C28.0751 25.843 28.0108 25.4001 27.8822 24.9715C28.4822 24.1787 28.8144 23.2073 28.8144 22.1965C28.8144 21.7465 28.7501 21.3037 28.6215 20.8751C29.2215 20.0823 29.5536 19.1108 29.5536 18.1001C29.5465 17.6501 29.4822 17.2037 29.3536 16.7751ZM4.28578 28.143V18.0001H7.17864V28.143H4.28578ZM27.0144 15.5358L26.2322 16.2144L26.7286 17.1215C26.8922 17.4204 26.977 17.7559 26.9751 18.0965C26.9751 18.6858 26.7179 19.2465 26.2751 19.6323L25.4929 20.3108L25.9894 21.218C26.1529 21.5168 26.2377 21.8523 26.2358 22.193C26.2358 22.7823 25.9786 23.343 25.5358 23.7287L24.7536 24.4073L25.2501 25.3144C25.4136 25.6132 25.4984 25.9487 25.4965 26.2894C25.4965 27.0894 25.0251 27.8108 24.2965 28.1394H9.46436V17.8858L13.0179 5.01082C13.1096 4.68083 13.3063 4.38969 13.5782 4.18153C13.8502 3.97336 14.1826 3.85952 14.5251 3.85725C14.7965 3.85725 15.0644 3.93582 15.2786 4.09654C15.6322 4.36082 15.8215 4.76082 15.8001 5.18582L15.4572 12.2715H26.6858C27.3215 12.6608 27.7144 13.318 27.7144 14.0001C27.7144 14.5894 27.4572 15.1465 27.0144 15.5358Z" fill="black"/>
</svg>
